<svg width="32" height="31" viewBox="0 0 32 31" fill="none" xmlns="http://www.w3.org/2000/svg">
<g clip-path="url(#clip0_2147_25324)">
<rect x="0.963867" y="0.445312" width="30.0723" height="30.0723" rx="15.0361" fill="#E0E0E0"/>
<g clip-path="url(#clip1_2147_25324)">
<rect width="30.0723" height="30.0723" transform="translate(0.963867 0.445312)" fill="#DEDAF9"/>
<path d="M13.6618 13.8652C13.6618 14.0729 13.4933 14.2414 13.2856 14.2414C13.2579 14.2414 13.2307 14.2379 13.2044 14.2323C13.0936 14.2078 13.0016 14.1348 12.9509 14.0362C12.9247 13.9848 12.9097 13.9267 12.9097 13.8652C12.9097 13.6575 13.0782 13.4893 13.2856 13.4893C13.4929 13.4893 13.6618 13.6575 13.6618 13.8652Z" fill="#FFAC00"/>
<path d="M18.6272 21.4561L18.5831 21.9456L18.4541 21.8309C18.5247 21.7068 18.5814 21.5802 18.6272 21.4561Z" fill="#DD920B"/>
<path d="M21.7432 7.99196C21.7432 7.75313 21.6156 7.57375 21.5121 7.4671C21.4411 7.39437 21.3813 7.35555 21.3813 7.35555C21.3813 7.35555 21.4495 7.03175 21.4495 6.56913C21.4495 5.91348 21.3124 4.97949 20.6488 4.29517C20.6162 4.2616 20.5823 4.22873 20.547 4.19621C19.7448 3.45909 18.8574 3.15662 18.1734 3.52273H18.173C17.8922 3.67309 17.6457 3.93605 17.4534 4.32804H17.4531C17.4496 4.3228 17.4086 4.26685 17.3387 4.19411C17.3356 4.19097 17.3321 4.18747 17.3286 4.18397C17.3251 4.18013 17.3216 4.17663 17.3181 4.17313C17.0576 3.91227 16.461 3.49301 15.8868 4.35427H15.8865C15.8865 4.35427 15.8858 4.35322 15.8854 4.35252C15.8847 4.35217 15.8844 4.35147 15.8833 4.35042C15.8826 4.34972 15.8819 4.34867 15.8809 4.34762C15.8799 4.34657 15.8788 4.34552 15.8774 4.34413C15.8764 4.34273 15.875 4.34133 15.8736 4.33993C15.7872 4.25041 15.2798 3.7724 14.2941 3.74862C12.9384 3.71575 12.3439 4.4291 12.3439 5.19559C12.3439 5.62849 12.5334 6.07818 12.8821 6.42016C12.8936 6.43135 12.9055 6.44289 12.9174 6.45373C12.9289 6.46492 12.9408 6.47576 12.953 6.4866C12.917 6.47856 11.7599 6.21595 11.24 6.77543C11.0826 6.94468 10.9092 7.32303 10.9092 7.70558C10.9092 7.94756 10.9784 8.19128 11.1651 8.38465C11.2774 8.50075 11.4316 8.59866 11.6383 8.66754C11.4215 8.74027 11.2561 8.88714 11.2561 9.16548C11.2561 9.20465 11.2592 9.24626 11.2662 9.29067C11.2886 9.43648 11.3435 9.54349 11.4197 9.62006C11.8218 10.0239 12.8195 9.58684 12.8195 9.58684C12.8667 10.3093 12.9195 11.1614 12.9244 11.245C13.0107 11.2261 13.1003 11.216 13.1915 11.216C13.486 11.216 13.758 11.3562 13.9776 11.537C14.1028 11.5674 14.2259 11.6062 14.3476 11.6594C14.4032 11.6835 14.4595 11.7108 14.5011 11.7552C14.52 11.7751 14.5574 11.8052 14.5574 11.7625V11.7576L14.5175 11.0331C14.5161 11.0079 14.5154 10.9828 14.5154 10.9576C14.5154 10.6971 14.5895 10.4408 14.7294 10.2198L14.8514 10.0274C14.9049 9.94317 14.9319 9.84701 14.9319 9.75084C14.9319 9.66272 14.9091 9.57426 14.8637 9.49488L14.7077 9.22143C14.6609 9.13961 14.6392 9.05149 14.6392 8.96547C14.6392 8.74342 14.7833 8.53257 15.0168 8.46718C16.3617 8.09162 19.5004 7.40031 20.8869 8.6588L21.3901 10.0131L21.3911 10.0156C21.3911 10.0156 21.5565 9.56167 21.5565 9.06443C21.5565 8.90532 21.5394 8.74132 21.4946 8.58642C21.6786 8.36157 21.7432 8.16191 21.7432 7.99196ZM21.7432 7.99196C21.7432 7.75313 21.6156 7.57375 21.5121 7.4671C21.4411 7.39437 21.3813 7.35555 21.3813 7.35555C21.3813 7.35555 21.4495 7.03175 21.4495 6.56913C21.4495 5.91348 21.3124 4.97949 20.6488 4.29517C20.6162 4.2616 20.5823 4.22873 20.547 4.19621C19.7448 3.45909 18.8574 3.15662 18.1734 3.52273H18.173C17.8922 3.67309 17.6457 3.93605 17.4534 4.32804H17.4531C17.4496 4.3228 17.4086 4.26685 17.3387 4.19411C17.3356 4.19097 17.3321 4.18747 17.3286 4.18397C17.3251 4.18013 17.3216 4.17663 17.3181 4.17313C17.0576 3.91227 16.461 3.49301 15.8868 4.35427H15.8865C15.8865 4.35427 15.8858 4.35322 15.8854 4.35252C15.8847 4.35217 15.8844 4.35147 15.8833 4.35042C15.8826 4.34972 15.8819 4.34867 15.8809 4.34762C15.8799 4.34657 15.8788 4.34552 15.8774 4.34413C15.8764 4.34273 15.875 4.34133 15.8736 4.33993C15.7872 4.25041 15.2798 3.7724 14.2941 3.74862C12.9384 3.71575 12.3439 4.4291 12.3439 5.19559C12.3439 5.62849 12.5334 6.07818 12.8821 6.42016C12.8936 6.43135 12.9055 6.44289 12.9174 6.45373C12.9289 6.46492 12.9408 6.47576 12.953 6.4866C12.917 6.47856 11.7599 6.21595 11.24 6.77543C11.0826 6.94468 10.9092 7.32303 10.9092 7.70558C10.9092 7.94756 10.9784 8.19128 11.1651 8.38465C11.2774 8.50075 11.4316 8.59866 11.6383 8.66754C11.4215 8.74027 11.2561 8.88714 11.2561 9.16548C11.2561 9.20465 11.2592 9.24626 11.2662 9.29067C11.2886 9.43648 11.3435 9.54349 11.4197 9.62006C11.8218 10.0239 12.8195 9.58684 12.8195 9.58684C12.8667 10.3093 12.9195 11.1614 12.9244 11.245C13.0107 11.2261 13.1003 11.216 13.1915 11.216C13.486 11.216 13.758 11.3562 13.9776 11.537C14.1028 11.5674 14.2259 11.6062 14.3476 11.6594C14.4032 11.6835 14.4595 11.7108 14.5011 11.7552C14.52 11.7751 14.5574 11.8052 14.5574 11.7625V11.7576L14.5175 11.0331C14.5161 11.0079 14.5154 10.9828 14.5154 10.9576C14.5154 10.6971 14.5895 10.4408 14.7294 10.2198L14.8514 10.0274C14.9049 9.94317 14.9319 9.84701 14.9319 9.75084C14.9319 9.66272 14.9091 9.57426 14.8637 9.49488L14.7077 9.22143C14.6609 9.13961 14.6392 9.05149 14.6392 8.96547C14.6392 8.74342 14.7833 8.53257 15.0168 8.46718C16.3617 8.09162 19.5004 7.40031 20.8869 8.6588L21.3901 10.0131L21.3911 10.0156C21.3911 10.0156 21.5565 9.56167 21.5565 9.06443C21.5565 8.90532 21.5394 8.74132 21.4946 8.58642C21.6786 8.36157 21.7432 8.16191 21.7432 7.99196Z" fill="#541B0A"/>
<path d="M15.1826 27.0887C15.0945 27.3698 15.0018 27.6597 14.8088 27.8825C14.7518 27.9485 14.6871 28.0059 14.6182 28.0587L14.6008 26.8492L14.5864 25.8379C14.606 25.8414 14.6256 25.8445 14.6452 25.848C14.6994 25.8585 14.7543 25.8694 14.8081 25.8837C14.9137 25.9117 15.0151 25.9519 15.0973 26.0225C15.3844 26.2697 15.2959 26.7271 15.1826 27.0887Z" fill="#009F62"/>
<path d="M17.1973 27.8457L17.1543 30.8428C17.0305 30.6945 16.9151 30.5375 16.7724 30.4081C16.5315 30.1896 16.2175 30.0529 16.0126 29.8004C15.6507 29.3556 15.7584 28.643 16.1657 28.2394C16.5025 27.9062 16.8371 27.8464 17.1973 27.8457Z" fill="#009F62"/>
<path d="M6.84292 35.0008H-0.246094L-0.242947 29.0891L3.41958 23.7132L4.25985 22.4795L4.57037 22.9561L5.79389 24.8349C6.26561 25.5339 6.53136 26.3511 6.56178 27.1938L6.84292 35.0008Z" fill="#FF6060"/>
<path d="M14.6183 28.0579L14.5865 25.8371L14.5746 25.0066C14.5679 24.872 14.4683 24.7605 14.3354 24.7388L14.2018 24.7167L13.4385 24.5919L12.9923 24.5188C12.8465 24.4951 12.7052 24.4555 12.5713 24.4013C11.9597 24.1569 11.4974 23.6209 11.3568 22.9579L11.2016 21.8309L11.0225 20.5332L6.06585 21.2347C5.38013 21.3434 4.76995 21.7302 4.37901 22.304L4.25977 22.4792L4.57028 22.9558L5.7938 24.8346C6.26552 25.5336 6.53127 26.3508 6.56169 27.1935L6.84284 35.0004H14.7176L14.6183 28.0579ZM11.233 25.8347C11.1718 26.7239 10.4012 27.3949 9.51228 27.3337C8.62305 27.2725 7.95201 26.5022 8.01321 25.613C8.0744 24.7237 8.84474 24.0527 9.73397 24.1139C10.6232 24.1751 11.2942 24.9458 11.233 25.8347Z" fill="#735FFF"/>
<path d="M19.952 20.083L19.6628 23.2976C19.632 23.6396 19.5187 23.969 19.3334 24.2578L19.2411 24.4012C19.1068 24.4554 18.9659 24.4949 18.8201 24.5187L18.3735 24.5918L18.7403 24.0218C18.926 23.7333 19.0393 23.4039 19.0701 23.0623L19.3659 19.7715L19.952 20.083Z" fill="white"/>
<path d="M18.5828 21.9458L18.5583 22.2154L18.3359 22.0171C18.3789 21.9559 18.4185 21.8936 18.4538 21.8311L18.5828 21.9458Z" fill="#FFAC00"/>
<path d="M18.5585 22.2158L18.4851 23.0327C18.4627 23.282 18.3802 23.5226 18.2445 23.7327L18.2242 23.7639C18.0053 23.88 17.7598 23.9796 17.4836 24.0573L17.1367 22.8704C17.7095 22.689 18.0875 22.3708 18.3361 22.0176L18.5585 22.2158Z" fill="#DD920B"/>
<path d="M18.2242 23.7638L17.6105 24.7174L17.477 24.7394C17.3441 24.7611 17.2444 24.8727 17.2378 25.0073L17.1972 27.846C16.8371 27.8467 16.5024 27.9065 16.1657 28.2397C15.7583 28.6432 15.6506 29.3559 16.0125 29.8007C16.2174 30.0531 16.5314 30.1899 16.7724 30.4084C16.915 30.5378 17.0304 30.6948 17.1542 30.8431L17.0948 35.0011H14.7177L14.6184 28.0586C14.6872 28.0058 14.7519 27.9484 14.8089 27.8823C15.0019 27.6596 15.0946 27.3697 15.1827 27.0886C15.296 26.727 15.3845 26.2696 15.0974 26.0224C15.0152 25.9518 14.9138 25.9116 14.8082 25.8836C14.7544 25.8692 14.6995 25.8584 14.6453 25.8479C14.6257 25.8444 14.6061 25.8413 14.5865 25.8378L14.5746 25.0073C14.568 24.8727 14.4683 24.7611 14.3355 24.7394L14.2019 24.7174L13.5679 23.7327C13.5609 23.7222 13.555 23.711 13.5483 23.7002C13.7886 23.8341 14.0624 23.9488 14.375 24.038C14.5393 24.0852 14.7145 24.1251 14.9012 24.1569C14.9715 24.1691 15.0439 24.18 15.1177 24.1894C15.3873 24.2247 15.6793 24.2436 15.995 24.2436C16.4765 24.2436 16.9 24.196 17.2728 24.1107C17.3451 24.0943 17.4151 24.0764 17.4836 24.0572C17.7599 23.9796 18.0053 23.8799 18.2242 23.7638Z" fill="#FFAC00"/>
<path d="M13.6968 22.1568L13.282 22.5338L13.167 21.2529C13.2719 21.5488 13.4369 21.8698 13.6968 22.1568Z" fill="#DD920B"/>
<path d="M13.8498 22.3108L13.3067 22.8046L13.2822 22.5332L13.6969 22.1562C13.7445 22.2091 13.7952 22.2608 13.8498 22.3108Z" fill="#FFAC00"/>
<path d="M15.2362 22.9655L14.9012 24.1561C14.3602 24.0642 13.9151 23.9037 13.5483 23.6995C13.4245 23.497 13.3483 23.2687 13.3273 23.0319L13.3066 22.8043L13.8497 22.3105C14.1745 22.6099 14.6214 22.8546 15.2362 22.9655Z" fill="#DD920B"/>
<g style="mix-blend-mode:multiply" opacity="0.6">
<path d="M14.8274 25.7936L14.8082 25.8835L14.6008 26.8489L14.5865 25.8377L14.5746 25.0072C14.5679 24.8725 14.4683 24.761 14.3354 24.7393L14.2018 24.7173L13.4385 24.5925L12.9923 24.5194C12.8465 24.4956 12.7052 24.4561 12.5713 24.4019C12.4059 24.3358 12.2513 24.2484 12.1111 24.1428L11.4429 22.3346L12.0401 22.0828L12.6318 21.8335L13.1979 21.5947L13.5871 21.4307C13.5871 21.4307 13.8025 22.8871 14.3749 24.0379C14.4431 24.1749 14.5165 24.3075 14.5952 24.433C14.8484 24.8376 14.9278 25.3271 14.8274 25.7936Z" fill="#AF750E"/>
</g>
<path d="M15.4528 22.9983L15.1178 24.189C15.044 24.1796 14.9717 24.1687 14.9014 24.1565L15.2364 22.9658C15.3063 22.9784 15.3783 22.9892 15.4528 22.9983Z" fill="#FFAC00"/>
<path d="M17.2727 24.11C16.9 24.1953 16.4765 24.2429 15.995 24.2429C15.6793 24.2429 15.3873 24.224 15.1177 24.1887L15.4527 22.998C15.6216 23.0187 15.802 23.0295 15.995 23.0295C16.3482 23.0295 16.6573 22.9928 16.9276 22.9277L17.2727 24.11Z" fill="#DD920B"/>
<path d="M12.5714 24.4012C12.406 24.3351 12.2514 24.2477 12.1112 24.1421C11.7332 23.8574 11.4594 23.4413 11.357 22.9577L11.0227 20.533L11.022 20.5281L11.8605 20.083L12.0402 22.0821L12.1497 23.2976C12.1805 23.6396 12.2938 23.969 12.4791 24.2578L12.5714 24.4012Z" fill="#735FFF"/>
<path d="M13.4384 24.5918L12.9923 24.5187C12.8464 24.4949 12.7052 24.4554 12.5712 24.4012L12.4789 24.2578C12.2936 23.969 12.1803 23.6396 12.1495 23.2976L12.0401 22.0822L11.8604 20.083L12.4464 19.7715L12.6317 21.8328L12.7422 23.0623C12.773 23.4039 12.886 23.7333 13.072 24.0218L13.4384 24.5918Z" fill="white"/>
<path d="M14.2017 24.7173L13.4383 24.5925L13.0719 24.0225C12.8858 23.734 12.7729 23.4046 12.7421 23.063L12.6316 21.8335L12.4463 19.7722L13.0068 19.4746L13.0107 19.518L13.167 21.2527L13.1977 21.5947L13.282 22.5336L13.3065 22.8049L13.3271 23.0326C13.3481 23.2693 13.4243 23.4977 13.5481 23.7001C13.5548 23.711 13.5607 23.7221 13.5677 23.7326L14.2017 24.7173Z" fill="#735FFF"/>
<path d="M27.5963 22.4823L27.3543 22.8537L26.064 24.8349C25.5922 25.5339 25.3265 26.3511 25.2961 27.1939L25.0149 35.0008H17.0947L17.1542 30.8428L17.1972 27.8457L17.2377 25.007C17.2444 24.8724 17.344 24.7608 17.4769 24.7391L17.6105 24.7171L18.3735 24.5923L18.82 24.5192C18.9659 24.4954 19.1068 24.4559 19.241 24.4017C19.8526 24.1573 20.3149 23.6212 20.4555 22.9582L20.6926 21.2357L20.7894 20.5332L25.7814 21.2448C26.4311 21.3476 27.0147 21.7008 27.4074 22.2284L27.5963 22.4823Z" fill="#735FFF"/>
<path d="M33.9183 30.9785V35.0009H25.0151L25.2963 27.194C25.3267 26.3513 25.5925 25.5341 26.0642 24.8351L27.3545 22.8538L27.5965 22.4824L28.5364 23.7455L33.9183 30.9785Z" fill="#FF6060"/>
<path d="M19.3657 19.7722L19.0699 23.063C19.0391 23.4046 18.9258 23.734 18.7402 24.0225L18.3733 24.5925L17.6104 24.7173L18.224 23.7638L18.2443 23.7326C18.38 23.5225 18.4625 23.2819 18.4849 23.0326L18.5583 22.2157L18.5828 21.9461L18.6269 21.4566L18.8021 19.5071L18.8052 19.4746L19.3657 19.7722Z" fill="#735FFF"/>
<path d="M17.4837 24.0569C17.4152 24.0762 17.3452 24.094 17.2729 24.1104L16.9277 22.9282C17.0001 22.911 17.0701 22.8914 17.1368 22.8701L17.4837 24.0569Z" fill="#FFAC00"/>
<path d="M20.7903 20.5281L20.7896 20.5327L20.4556 22.9577C20.3151 23.6207 19.8528 24.1568 19.2412 24.4012L19.3335 24.2578C19.5189 23.969 19.6322 23.6396 19.6629 23.2976L19.9521 20.083L20.7903 20.5281Z" fill="#735FFF"/>
<path d="M9.73392 24.1142C8.84469 24.053 8.07434 24.7241 8.01315 25.6133C7.95196 26.5025 8.62299 27.2729 9.51222 27.3341C10.4011 27.3953 11.1718 26.7242 11.233 25.835C11.2942 24.9461 10.6231 24.1754 9.73392 24.1142ZM8.49011 25.7133C8.4534 25.7105 8.42542 25.6787 8.42822 25.642C8.43067 25.6049 8.46249 25.5773 8.49955 25.5797C8.53627 25.5822 8.56424 25.614 8.56145 25.6511C8.559 25.6878 8.52718 25.7157 8.49011 25.7133ZM9.74965 26.7595C9.74196 26.8683 9.6479 26.9505 9.53915 26.9431C9.4304 26.9354 9.34822 26.8414 9.35591 26.7326C9.36326 26.6239 9.45767 26.5417 9.56607 26.5494C9.67482 26.5567 9.75699 26.6511 9.74965 26.7595ZM10.7466 25.8686C10.7099 25.8661 10.6819 25.8343 10.6847 25.7972C10.6871 25.7605 10.719 25.7325 10.756 25.735C10.7927 25.7378 10.8207 25.7696 10.8179 25.8067C10.8155 25.8434 10.7836 25.8714 10.7466 25.8686Z" fill="#DAD7FF"/>
<path d="M8.56164 25.6506C8.55919 25.6873 8.52737 25.7153 8.49031 25.7128C8.45359 25.71 8.42562 25.6782 8.42842 25.6415C8.43086 25.6044 8.46268 25.5768 8.49975 25.5793C8.53647 25.5817 8.56444 25.6135 8.56164 25.6506Z" fill="white"/>
<path d="M9.84863 25.8086C9.85073 25.8135 9.85283 25.818 9.85493 25.8229H9.85458C9.85248 25.8184 9.85038 25.8135 9.84863 25.8086Z" fill="#FFAC00"/>
<path d="M10.5512 25.2167L10.011 25.6874C9.97111 25.5506 9.90047 25.4321 9.78857 25.3366L10.2816 24.9072C10.3348 24.8611 10.4152 24.8667 10.4617 24.9198L10.5635 25.0366C10.61 25.0898 10.6044 25.1705 10.5512 25.2167Z" fill="#FFAC00"/>
<path d="M9.60818 25.9666C9.53405 25.9914 9.46516 26.0298 9.40607 26.0812L8.87805 26.5414C8.83434 26.5795 8.76791 26.575 8.72944 26.5309C8.69133 26.4872 8.69587 26.4208 8.73993 26.3827L9.27039 25.9204C9.3134 25.883 9.35047 25.8393 9.38089 25.791L9.39942 25.8123C9.45153 25.8725 9.51552 25.9211 9.5872 25.9557L9.59909 25.9617C9.60224 25.9631 9.60503 25.9652 9.60818 25.9666Z" fill="#FFAC00"/>
<path d="M10.3977 26.6465C10.3536 26.6846 10.2872 26.6801 10.2491 26.6364L9.78681 26.1056C9.73681 26.0482 9.67596 26.0014 9.60813 25.9671C9.60498 25.9657 9.60218 25.9636 9.59903 25.9622L9.58715 25.9562C9.51546 25.9216 9.45147 25.873 9.39937 25.8129L9.38084 25.7915L8.77345 25.0946C8.72729 25.0415 8.73288 24.9607 8.78603 24.9146L8.90283 24.8128C8.95598 24.7663 9.03675 24.7719 9.08291 24.825L9.641 25.4657L9.71128 25.5461C9.76478 25.6076 9.80534 25.68 9.82947 25.758C9.83647 25.7804 9.84521 25.8024 9.85465 25.8237C9.87843 25.8765 9.90955 25.9262 9.94801 25.9699L10.4078 26.4982C10.446 26.542 10.4414 26.6084 10.3977 26.6465Z" fill="#FFAC00"/>
<path d="M9.74971 26.7595C9.74201 26.8682 9.64795 26.9504 9.5392 26.9431C9.43045 26.9354 9.34827 26.8413 9.35597 26.7326C9.36331 26.6238 9.45772 26.5416 9.56612 26.5493C9.67487 26.5567 9.75705 26.6511 9.74971 26.7595Z" fill="#A39CFF"/>
<path d="M10.818 25.8062C10.8155 25.8429 10.7837 25.8709 10.7467 25.8681C10.7099 25.8657 10.682 25.8338 10.6848 25.7968C10.6872 25.7601 10.719 25.7321 10.7561 25.7345C10.7928 25.7373 10.8208 25.7691 10.818 25.8062Z" fill="white"/>
<path d="M20.2771 16.6521C20.0966 16.7626 19.8959 16.8497 19.6721 16.9084C19.5456 16.942 19.412 16.9665 19.2707 16.9815C19.1102 16.9983 18.9539 17.0088 18.8025 17.013V19.5065L18.6273 21.456C18.5815 21.5801 18.5248 21.7067 18.4542 21.8309C18.4189 21.8934 18.3794 21.9557 18.3364 22.0169C18.0877 22.3701 17.7097 22.6883 17.137 22.8697C17.0702 22.8911 17.0002 22.9107 16.9279 22.9278C16.6576 22.9928 16.3484 23.0296 15.9953 23.0296C15.8023 23.0296 15.6218 23.0187 15.4529 22.9981C15.3784 22.989 15.3064 22.9781 15.2365 22.9656C14.6217 22.8547 14.1749 22.6099 13.85 22.3106C13.7954 22.2606 13.7447 22.2089 13.6972 22.1561C13.4374 21.869 13.2723 21.548 13.1674 21.2521L13.0111 19.5174L13.2048 14.232C13.2311 14.2376 13.2583 14.2411 13.286 14.2411C13.4937 14.2411 13.6622 14.0726 13.6622 13.8648C13.6622 13.6571 13.4937 13.4889 13.286 13.4889C13.0783 13.4889 12.9101 13.6571 12.9101 13.8648C12.9101 13.9264 12.9251 13.9844 12.9513 14.0358C12.3348 13.9145 11.8677 13.3347 11.8677 12.6375C11.8677 12.5857 11.8701 12.5347 11.8754 12.4847C11.889 12.3493 11.9201 12.2196 11.9663 12.0986C12.0506 11.8776 12.1852 11.685 12.3544 11.5363C12.5002 11.4084 12.6716 11.3132 12.8594 11.2611C12.866 11.2594 12.8723 11.2576 12.8789 11.2559C12.894 11.2517 12.909 11.2482 12.9244 11.2447C13.0108 11.2258 13.1003 11.2157 13.1916 11.2157C13.1989 11.2157 13.2083 11.2157 13.2181 11.2164C13.2867 11.2185 13.3538 11.2276 13.4192 11.2433C13.529 11.2695 13.6342 11.3132 13.7329 11.3685C13.8199 11.4168 13.9021 11.4741 13.9776 11.5367C14.1028 11.5671 14.2259 11.6059 14.3476 11.6591C14.4032 11.6832 14.4595 11.7105 14.5011 11.7549C14.5207 11.7755 14.5602 11.807 14.5574 11.7573C14.5574 11.757 14.5175 11.0328 14.5175 11.0328C14.5018 10.7464 14.5759 10.4618 14.7294 10.2195L14.8515 10.0271C14.8574 10.018 14.8627 10.0086 14.8679 9.99916C14.9543 9.8425 14.9536 9.65123 14.8637 9.49457L14.7078 9.22113C14.5406 8.9288 14.6927 8.55744 15.0169 8.46687C15.6103 8.30112 16.552 8.07418 17.5388 7.98012H17.5394C18.5441 7.88431 19.5949 7.92627 20.3711 8.31127H20.3715C20.4173 8.33434 20.4617 8.35812 20.5054 8.3833C20.6435 8.46233 20.7715 8.55359 20.8869 8.6585L21.3901 10.0128C21.4048 10.074 21.4188 10.1355 21.4314 10.1971C21.7922 11.935 22.115 15.5251 20.2771 16.6521Z" fill="#C16D53"/>
<path d="M17.4103 11.3935C17.506 11.3865 17.5724 11.2278 17.5586 11.0391C17.5449 10.8503 17.4561 10.703 17.3603 10.71C17.2646 10.717 17.1982 10.8757 17.212 11.0644C17.2258 11.2532 17.3146 11.4005 17.4103 11.3935Z" fill="#231F20"/>
<path d="M20.463 11.2597C20.5588 11.2527 20.6252 11.0941 20.6114 10.9053C20.5976 10.7165 20.5088 10.5692 20.4131 10.5762C20.3173 10.5832 20.2509 10.7419 20.2647 10.9306C20.2785 11.1194 20.3673 11.2667 20.463 11.2597Z" fill="#231F20"/>
<g style="mix-blend-mode:screen">
<path d="M20.2768 16.6524C20.0964 16.7629 19.8957 16.85 19.6719 16.9087C20.7608 16.4989 21.2003 14.6414 21.1968 12.8986C21.1933 11.0894 20.6562 9.14935 20.3709 8.31152C20.509 8.39055 20.7713 8.55385 20.8867 8.65875L21.3898 10.0131C21.4045 10.0742 21.4185 10.1358 21.4311 10.1973C21.792 11.9352 22.1147 15.5254 20.2768 16.6524Z" fill="#E5765C"/>
</g>
<path d="M18.8023 17.0136C18.8023 17.0136 16.2633 17.2828 14.6426 14.9229C14.6426 14.9229 15.1636 18.6945 18.8023 19.198V17.0136Z" fill="#843928"/>
<path d="M21.4493 6.569C21.4493 7.03162 21.3811 7.35543 21.3811 7.35543C21.2825 4.26567 18.1729 3.52296 18.1729 3.52296H18.1732C18.8572 3.15649 19.7447 3.45896 20.5468 4.19609C20.5821 4.22861 20.6161 4.26148 20.6486 4.29504C21.3123 4.97936 21.4493 5.91335 21.4493 6.569Z" fill="#872F1B"/>
<path d="M17.1655 6.35874C17.1655 6.35874 18.7094 7.41652 19.7503 6.00977C19.7503 6.00977 19.6395 6.90424 19.0325 7.24413C18.5604 7.50883 17.646 7.4361 17.1655 6.35874Z" fill="#872F1B"/>
<path d="M19.3901 6.6582C19.3901 6.6582 19.7933 7.15265 20.5455 6.82395C20.5455 6.82395 19.5524 7.62471 19.3901 6.6582Z" fill="#872F1B"/>
<path d="M21.9695 29.9324V29.5348H22.1985L21.7621 28.4504H21.2705V29.5348H21.5366V29.9324H20.6016V29.5348H20.8729V26.9738H20.6016V26.5762H22.5542L22.7797 26.8063V28.2253L22.5545 28.4504H22.1489L22.5853 29.5348H22.9045V29.9324H21.9695ZM21.2705 28.0529H22.3877V26.9738H21.2705V28.0529Z" fill="#DAD7FF"/>
<g style="mix-blend-mode:soft-light">
<path d="M28.5371 23.7635L27.3541 22.8537L26.8429 22.4603C26.4904 22.1893 26.0743 22.0137 25.6344 21.9501L20.6924 21.2357L20.7892 20.5332L25.7812 21.2448C26.4309 21.3476 27.0146 21.7008 27.4072 22.2284L27.5961 22.4823L28.536 23.7453L28.5371 23.7635Z" fill="white"/>
</g>
<g style="mix-blend-mode:soft-light">
<path d="M11.1463 21.4308L6.63227 21.8927C5.79829 21.978 5.01152 22.3203 4.3807 22.8725L3.41943 23.7138L4.25971 22.4801L4.37895 22.3049C4.76989 21.7311 5.38008 21.3444 6.0658 21.2356L11.0225 20.5342L11.1463 21.4311V21.4308Z" fill="white"/>
</g>
<g style="mix-blend-mode:screen">
<path d="M13.7701 11.5312C13.6711 11.633 13.3201 11.6589 13.2368 11.6477C13.0487 11.6218 12.8546 11.5714 12.6725 11.6256C12.4885 11.6802 12.3522 11.8313 12.1965 11.9438C12.1801 11.9557 12.163 11.9673 12.143 11.9704C12.0196 11.9904 12.0958 11.8389 12.1224 11.7991C12.1871 11.7019 12.2665 11.6134 12.3543 11.5365C12.3959 11.5148 12.4371 11.4917 12.477 11.4641C12.6043 11.3763 12.7134 11.3046 12.8592 11.2613C12.8658 11.2595 12.8721 11.2578 12.8788 11.256C12.8938 11.2518 12.9088 11.2483 12.9242 11.2448C13.0106 11.226 13.1001 11.2158 13.1914 11.2158C13.2347 11.2158 13.3232 11.2239 13.419 11.2434C13.5362 11.2669 13.6638 11.3067 13.7327 11.3686C13.8086 11.4368 13.81 11.4903 13.7701 11.5312Z" fill="#E5765C"/>
</g>
<path d="M21.4111 27.1201V27.9128H22.2416V27.1201H21.4111ZM22.1601 27.8314H21.4926V27.2016H22.1601V27.8314Z" fill="white"/>
<path d="M22.7411 29.3079L22.4803 28.6781H22.6488L23.0069 28.3197V26.7129L22.6488 26.3545H20.3794V27.2014H20.6455V29.3079H20.3794V30.1548H23.1317V29.3079H22.7411ZM23.0506 30.0733H21.8288V29.3893H21.9918L21.6662 28.5966H21.4109V29.3893H21.6823V30.0733H20.4609V29.3893H20.727V27.1199H20.4609V26.436H22.6163L22.9254 26.7454V28.2872L22.6163 28.5966H22.361L22.6813 29.3893H23.0506V30.0733ZM21.4924 29.3079V28.6781H21.6117L21.8669 29.3079H21.4924Z" fill="white"/>
<path d="M21.4111 27.1201V27.9128H22.2416V27.1201H21.4111ZM22.1601 27.8314H21.4926V27.2016H22.1601V27.8314Z" fill="white"/>
<path d="M21.4111 27.1201V27.9128H22.2416V27.1201H21.4111ZM22.1601 27.8314H21.4926V27.2016H22.1601V27.8314Z" fill="white"/>
<g style="mix-blend-mode:soft-light">
<path d="M13.0107 19.5176L13.144 20.9327L11.141 21.4502L11.0225 20.5334L13.0107 19.5176Z" fill="white"/>
</g>
<g style="mix-blend-mode:soft-light">
<path d="M18.8025 19.5068L18.6909 20.8485L20.6928 21.2356L20.7897 20.5331L18.8025 19.5068Z" fill="white"/>
</g>
<path d="M12.9515 14.0893C12.948 14.0893 12.9449 14.0893 12.9414 14.0882C12.2889 13.9599 11.8154 13.35 11.8154 12.6384C11.8154 11.9268 12.2774 11.3345 12.9134 11.1946C12.9417 11.1883 12.9697 11.2062 12.976 11.2345C12.9823 11.2628 12.9645 11.2908 12.9361 11.2971C12.3476 11.4265 11.9207 11.9908 11.9207 12.6388C11.9207 13.2867 12.3585 13.8669 12.962 13.9858C12.9903 13.9913 13.0089 14.019 13.0033 14.0473C12.9984 14.0725 12.9764 14.0896 12.9519 14.0896L12.9515 14.0893Z" fill="#231F20"/>
<path d="M14.0397 11.6431C14.0271 11.6431 14.0149 11.6386 14.0048 11.6298C13.8212 11.4651 13.5313 11.269 13.1914 11.269C13.1054 11.269 13.0194 11.2784 12.9354 11.2966C12.9071 11.3029 12.8791 11.2851 12.8728 11.2567C12.8666 11.2284 12.8844 11.2004 12.9127 11.1941C13.0036 11.1742 13.0973 11.1641 13.1911 11.1641C13.5638 11.1641 13.8771 11.3749 14.0743 11.5519C14.096 11.5711 14.0978 11.6043 14.0782 11.626C14.0677 11.6375 14.0534 11.6435 14.039 11.6435L14.0397 11.6431Z" fill="#231F20"/>
<path d="M12.9538 13.3714C12.9374 13.3714 12.9213 13.3637 12.9108 13.3494C12.894 13.3256 12.8996 13.2931 12.9234 13.2763C12.9265 13.2742 13.2322 13.0546 13.2605 12.8385C13.2685 12.7763 13.2521 12.7217 13.2105 12.6717C13.1175 12.5602 12.9874 12.6228 12.8209 12.7518C12.8125 12.7584 12.8017 12.7672 12.7888 12.7777C12.6618 12.8819 12.5304 12.9801 12.4391 12.9333C12.3905 12.9085 12.3688 12.8515 12.3744 12.7637C12.3859 12.5833 12.4422 12.4063 12.5366 12.2525C12.6167 12.1224 12.7129 12.028 12.8227 11.9724C13.0538 11.8552 13.3339 11.9063 13.5776 11.972C13.6056 11.9797 13.622 12.0084 13.6147 12.0364C13.6074 12.0643 13.5787 12.0808 13.5504 12.0734C13.3259 12.0129 13.0692 11.965 12.8699 12.0661C12.7776 12.1129 12.6954 12.1941 12.6258 12.3077C12.5401 12.4472 12.4891 12.6074 12.4789 12.7707C12.4755 12.8277 12.487 12.8403 12.4873 12.8403C12.5017 12.8466 12.5524 12.8364 12.7223 12.6969C12.736 12.6857 12.7479 12.6759 12.7569 12.6689C12.8639 12.5864 13.1143 12.3927 13.2913 12.6049C13.3521 12.6777 13.3766 12.7612 13.3647 12.8529C13.3304 13.1148 12.9982 13.3525 12.9842 13.3627C12.9751 13.3693 12.9643 13.3725 12.9538 13.3725V13.3714Z" fill="#231F20"/>
<path d="M19.5141 12.8825C19.4987 12.8825 19.4823 12.8808 19.4651 12.8773C19.3046 12.8437 19.163 12.7626 19.034 12.6801C19.0095 12.6643 19.0025 12.6321 19.0179 12.6077C19.0333 12.5832 19.0662 12.5762 19.0903 12.5916C19.2109 12.6689 19.3424 12.7444 19.4861 12.7745C19.5589 12.7895 19.6162 12.7426 19.6778 12.6175C19.8411 12.2846 19.6984 11.8415 19.5375 11.4523C19.4326 11.1985 19.3085 10.9568 19.169 10.7337C19.1536 10.7093 19.1609 10.6767 19.1854 10.6614C19.2099 10.646 19.2424 10.6533 19.2578 10.6778C19.4005 10.9058 19.5274 11.1527 19.6344 11.4121C19.8043 11.8233 19.9533 12.2933 19.7718 12.6636C19.741 12.7262 19.6645 12.8825 19.5138 12.8825H19.5141Z" fill="#231F20"/>
<path d="M18.3408 14.3983C17.7645 14.3983 17.3001 13.964 17.1302 13.7815C17.1106 13.7601 17.1117 13.7269 17.133 13.7073C17.1543 13.6878 17.1875 13.6888 17.2071 13.7101C18.1054 14.678 18.86 14.2056 19.1429 13.9577C19.1646 13.9385 19.1978 13.9409 19.2171 13.9626C19.2363 13.9843 19.2339 14.0175 19.2122 14.0367C18.9097 14.3021 18.6128 14.3987 18.3408 14.3987V14.3983Z" fill="#231F20"/>
<path d="M17.1682 13.7982C17.1483 13.7982 17.1291 13.7867 17.1203 13.7671C17.1084 13.7405 17.1203 13.7097 17.1469 13.6979C17.2249 13.6632 17.291 13.6111 17.3434 13.5429C17.3609 13.5199 17.3941 13.5157 17.4169 13.5335C17.4399 13.5513 17.4441 13.5842 17.4263 13.6069C17.363 13.6891 17.2836 13.7517 17.1896 13.7937C17.1826 13.7968 17.1752 13.7982 17.1682 13.7982Z" fill="#231F20"/>
<path d="M16.9079 13.8522C16.8694 13.8522 16.8453 13.849 16.8428 13.8487C16.8141 13.8445 16.7942 13.8179 16.7984 13.7892C16.8026 13.7606 16.8292 13.7406 16.8579 13.7448C16.8593 13.7448 17.0005 13.7634 17.1474 13.698C17.174 13.6861 17.2047 13.698 17.2166 13.7245C17.2285 13.7511 17.2166 13.7819 17.19 13.7938C17.0796 13.8431 16.9732 13.8525 16.9082 13.8525L16.9079 13.8522Z" fill="#231F20"/>
<path d="M12.9242 11.2975C12.8966 11.2975 12.8735 11.2762 12.8718 11.2482L12.8711 11.2356C12.854 10.9608 12.8113 10.2729 12.7718 9.66311C12.5581 9.74633 11.9039 9.96873 11.5088 9.75158C11.3458 9.66206 11.2468 9.5096 11.2143 9.29875C11.1619 8.95991 11.3028 8.72457 11.6213 8.61792C11.6486 8.60883 11.6787 8.62352 11.6878 8.65114C11.6969 8.67877 11.6822 8.70849 11.6546 8.71758C11.3832 8.8085 11.2731 8.99348 11.3178 9.28301C11.3455 9.46239 11.4245 9.58583 11.5591 9.65961C11.9812 9.89145 12.7903 9.54247 12.7984 9.53897C12.8141 9.53198 12.8319 9.53338 12.8466 9.54212C12.8613 9.55086 12.8704 9.5666 12.8718 9.58338C12.9124 10.2107 12.9582 10.9429 12.976 11.229L12.9767 11.2419C12.9784 11.2709 12.9564 11.2958 12.9277 11.2975C12.9267 11.2975 12.9256 11.2975 12.9246 11.2975H12.9242Z" fill="#231F20"/>
<path d="M11.6383 8.72075C11.6162 8.72075 11.596 8.70676 11.5886 8.68508C11.5795 8.65746 11.5942 8.62773 11.6218 8.61864C12.0429 8.47737 12.6349 8.60291 12.66 8.6085C12.6884 8.6148 12.7062 8.64242 12.7003 8.67075C12.6943 8.69907 12.6663 8.71725 12.638 8.71096C12.6321 8.70956 12.0488 8.58612 11.6554 8.7183C11.6498 8.72005 11.6442 8.7211 11.6386 8.7211L11.6383 8.72075Z" fill="#231F20"/>
<path d="M14.545 11.8373C14.5236 11.8373 14.4956 11.8268 14.4628 11.7915C14.4271 11.7534 14.3761 11.7293 14.3268 11.708C14.2156 11.6597 14.0974 11.6205 13.9655 11.5887C13.9372 11.5821 13.9201 11.5534 13.9267 11.5254C13.9334 11.4975 13.9617 11.48 13.99 11.4866C14.1281 11.5198 14.2519 11.5611 14.3687 11.6118C14.4117 11.6303 14.4593 11.6527 14.5012 11.6852C14.4908 11.4971 14.4656 11.0369 14.4656 11.0369C14.4491 10.7376 14.525 10.4456 14.6855 10.1928L14.8076 10.0001C14.8999 9.85466 14.9041 9.67143 14.8184 9.52177L14.6621 9.24832C14.5743 9.09482 14.5624 8.91298 14.6296 8.74933C14.6967 8.58603 14.8327 8.46505 15.0027 8.41749C16.3122 8.05173 19.5104 7.33943 20.922 8.621C20.9283 8.6266 20.9329 8.63359 20.936 8.64163L21.4392 9.99558C21.4493 10.0229 21.4354 10.0529 21.4084 10.0631C21.3812 10.0732 21.3511 10.0592 21.3409 10.0323L20.8419 8.69024C19.4642 7.45553 16.3206 8.15838 15.0307 8.51855C14.8918 8.55736 14.781 8.65597 14.7264 8.7892C14.6715 8.92277 14.6813 9.07104 14.753 9.19622L14.9093 9.46967C15.0142 9.65325 15.009 9.87774 14.8957 10.0564L14.7736 10.2491C14.625 10.4837 14.5544 10.754 14.5698 11.0313C14.5966 11.5151 14.61 11.7575 14.61 11.7587C14.6128 11.8087 14.5831 11.8272 14.5701 11.8324C14.5631 11.8352 14.5547 11.8377 14.5453 11.8377L14.545 11.8373Z" fill="#231F20"/>
<path d="M21.3913 10.068C21.3696 10.068 21.35 10.0547 21.3424 10.034C21.3368 10.0197 21.3382 10.004 21.3445 9.99104C21.3707 9.91516 21.6141 9.18503 21.4445 8.60107C21.4396 8.58463 21.4434 8.56645 21.4543 8.55316C21.6389 8.32727 21.7162 8.10697 21.6836 7.89822C21.6354 7.58665 21.3556 7.40132 21.3528 7.39958C21.3347 7.38769 21.3256 7.36601 21.3301 7.34468C21.3343 7.32509 21.7315 5.35501 20.5119 4.23464C19.8363 3.61396 19.1425 3.33247 18.5579 3.44227C18.1113 3.52619 17.7554 3.83181 17.5008 4.35073C17.4928 4.36717 17.4763 4.37836 17.4581 4.37976C17.4393 4.38151 17.4218 4.37311 17.4113 4.35808C17.4078 4.35318 17.063 3.88252 16.6329 3.89056C16.3818 3.8951 16.1458 4.06085 15.9307 4.38291C15.9217 4.39654 15.907 4.40493 15.8905 4.40633C15.8744 4.40738 15.8584 4.40074 15.8475 4.3885C15.8465 4.3871 15.7213 4.24618 15.4681 4.10421C15.2349 3.97308 14.8415 3.81433 14.2929 3.80104C13.3805 3.77866 12.7221 4.11051 12.4864 4.7102C12.2609 5.28402 12.463 5.98233 12.9889 6.4474C13.0067 6.46349 13.0116 6.48936 13.0008 6.51069C12.9896 6.53203 12.9655 6.54321 12.942 6.53762C12.9305 6.53482 11.7794 6.27186 11.2786 6.81107C11.0877 7.01668 10.8821 7.5335 10.9936 7.9692C11.0734 8.28006 11.2958 8.49826 11.6549 8.61785C11.6825 8.62694 11.6972 8.65667 11.6881 8.68429C11.679 8.71157 11.6493 8.7266 11.6217 8.71751C11.2321 8.58813 10.9797 8.33846 10.8919 7.99543C10.7657 7.50203 11.002 6.95444 11.2017 6.73973C11.6262 6.28305 12.4357 6.34774 12.792 6.40299C12.3294 5.91344 12.1665 5.23752 12.3889 4.67209C12.6417 4.02868 13.3375 3.67306 14.2957 3.69614C15.2216 3.71852 15.7304 4.12904 15.88 4.27206C16.1059 3.9542 16.3587 3.79055 16.6315 3.78601C16.6357 3.78601 16.6395 3.78601 16.6437 3.78601C17.0235 3.78601 17.3267 4.09302 17.4441 4.23149C17.7092 3.73215 18.0862 3.42444 18.5386 3.33947C19.1562 3.22337 19.8821 3.51396 20.5829 4.15771C21.7567 5.23577 21.4871 7.06074 21.4392 7.33244C21.52 7.39328 21.7406 7.58351 21.7871 7.88143C21.8235 8.11432 21.7448 8.35559 21.5525 8.59862C21.7253 9.23993 21.4525 10.0012 21.4406 10.0337C21.4333 10.0543 21.4137 10.068 21.3917 10.0683L21.3913 10.068Z" fill="#231F20"/>
<path d="M13.5487 23.7522C13.5312 23.7522 13.5137 23.7435 13.5039 23.7271C13.3759 23.5179 13.2969 23.2795 13.2752 23.0368L13.2546 22.8091C13.2521 22.7801 13.2731 22.7549 13.3021 22.7521C13.3312 22.7497 13.3563 22.7707 13.3591 22.7997L13.3798 23.0273C13.4001 23.2539 13.4738 23.4767 13.5934 23.6722C13.6085 23.697 13.6008 23.7291 13.5759 23.7442C13.5676 23.7494 13.5581 23.7519 13.5487 23.7519V23.7522Z" fill="#231F20"/>
<path d="M14.2021 24.7697C14.1993 24.7697 14.1965 24.7697 14.1937 24.769L13.4307 24.6442C13.4021 24.6397 13.3828 24.6124 13.3874 24.5841C13.3919 24.5554 13.4192 24.5362 13.4475 24.5407L14.2105 24.6655C14.2392 24.6701 14.2584 24.6974 14.2539 24.7257C14.2497 24.7516 14.2273 24.7697 14.2021 24.7697Z" fill="#231F20"/>
<path d="M11.0226 20.5859C10.9967 20.5859 10.9744 20.5667 10.9709 20.5404L10.9702 20.5355C10.9674 20.5139 10.9782 20.4925 10.9974 20.4824L11.836 20.0373C11.8615 20.024 11.8933 20.0334 11.907 20.0589C11.9206 20.0845 11.9108 20.1163 11.8853 20.1299L11.0642 20.5656C11.0562 20.5761 11.0439 20.5834 11.03 20.5855C11.0275 20.5855 11.0254 20.5859 11.023 20.5859H11.0226Z" fill="#231F20"/>
<path d="M12.4467 19.8244C12.4278 19.8244 12.4096 19.8143 12.4002 19.7965C12.3866 19.7709 12.3964 19.7391 12.4219 19.7255L12.9824 19.4279C12.9978 19.4199 13.0167 19.4199 13.0321 19.4279C13.0475 19.4363 13.0576 19.4517 13.0593 19.4692L13.0632 19.5125C13.0656 19.5416 13.0447 19.5667 13.0156 19.5695C12.9982 19.5709 12.9824 19.5639 12.9716 19.552L12.4708 19.8178C12.4631 19.822 12.4548 19.8237 12.4464 19.8237L12.4467 19.8244Z" fill="#231F20"/>
<path d="M14.2021 24.7696C14.1849 24.7696 14.1678 24.7612 14.158 24.7454L13.5241 23.7607C13.5195 23.7534 13.515 23.7461 13.5104 23.7387L13.5038 23.7272C13.4887 23.7023 13.4964 23.6702 13.5213 23.6551C13.5461 23.6401 13.5783 23.6478 13.5933 23.6726L13.601 23.6856C13.6045 23.6919 13.6083 23.6981 13.6122 23.7041L14.2461 24.6891C14.2619 24.7136 14.2549 24.7458 14.2304 24.7615C14.2217 24.7671 14.2119 24.7699 14.2021 24.7699V24.7696Z" fill="#231F20"/>
<path d="M13.2824 22.5862C13.2555 22.5862 13.2328 22.5655 13.2303 22.5383L13.1149 21.2574C13.1125 21.2284 13.1335 21.2032 13.1625 21.2004C13.1912 21.1979 13.2167 21.2189 13.2195 21.2479L13.3349 22.5288C13.3373 22.5578 13.3164 22.583 13.2873 22.5858C13.2856 22.5858 13.2842 22.5858 13.2824 22.5858V22.5862Z" fill="#231F20"/>
<path d="M13.1676 21.305C13.1407 21.305 13.1179 21.2844 13.1155 21.2571L12.9592 19.522C12.9567 19.493 12.9777 19.4678 13.0067 19.465C13.0354 19.4626 13.0609 19.4836 13.0637 19.5126L13.22 21.2477C13.2225 21.2767 13.2015 21.3019 13.1725 21.3047C13.1707 21.3047 13.1693 21.3047 13.1676 21.3047V21.305Z" fill="#231F20"/>
<path d="M12.5715 24.4549C12.5649 24.4549 12.5586 24.4538 12.5519 24.451C11.9141 24.1961 11.4483 23.6422 11.3057 22.9698C11.3057 22.9684 11.3053 22.9674 11.305 22.966L10.9707 20.5409C10.9668 20.5123 10.9868 20.4857 11.0154 20.4818C11.0438 20.4784 11.0707 20.4979 11.0745 20.5266L11.4085 22.9495C11.5442 23.5866 11.9862 24.1115 12.5907 24.3531C12.6177 24.364 12.6306 24.3944 12.6201 24.4213C12.6121 24.442 12.5921 24.4542 12.5715 24.4542V24.4549Z" fill="#231F20"/>
<path d="M13.3068 22.857C13.2798 22.857 13.2571 22.8363 13.2547 22.8091L13.2302 22.5377C13.2277 22.5087 13.2487 22.4835 13.2777 22.4807C13.3068 22.4779 13.3319 22.4992 13.3347 22.5283L13.3592 22.7996C13.3617 22.8286 13.3407 22.8538 13.3117 22.8566C13.3099 22.8566 13.3085 22.8566 13.3068 22.8566V22.857Z" fill="#231F20"/>
<path d="M13.4389 24.6452C13.4217 24.6452 13.4046 24.6368 13.3948 24.6211L13.0283 24.0511C12.8385 23.7567 12.7217 23.4168 12.6905 23.0678L12.3947 19.777C12.3923 19.7479 12.4136 19.7228 12.4423 19.72C12.4706 19.7172 12.4965 19.7385 12.4993 19.7675L12.7951 23.0583C12.8248 23.3902 12.936 23.714 13.1168 23.9941L13.4836 24.5641C13.4994 24.5885 13.4924 24.6207 13.4679 24.6364C13.4591 24.642 13.4494 24.6448 13.4396 24.6448L13.4389 24.6452Z" fill="#231F20"/>
<path d="M12.5718 24.4542C12.5547 24.4542 12.5375 24.4458 12.5277 24.43L12.4354 24.2867C12.2459 23.9915 12.1291 23.6513 12.098 23.303L11.8088 20.0884C11.8063 20.0594 11.8273 20.0342 11.8563 20.0314C11.8854 20.029 11.9105 20.05 11.9133 20.079L12.2025 23.2939C12.2322 23.6254 12.3434 23.9492 12.5239 24.2304L12.6162 24.3737C12.6319 24.3982 12.6249 24.4304 12.6005 24.4461C12.5917 24.4517 12.5819 24.4545 12.5721 24.4545L12.5718 24.4542Z" fill="#231F20"/>
<path d="M13.4392 24.6451C13.4364 24.6451 13.4336 24.6451 13.4308 24.6444L12.9846 24.5713C12.8353 24.5468 12.6898 24.5059 12.5524 24.4507C12.5255 24.4398 12.5125 24.4094 12.5234 24.3825C12.5342 24.3555 12.5646 24.3426 12.5916 24.3534C12.722 24.4059 12.8598 24.4447 13.0014 24.4678L13.4476 24.5409C13.4762 24.5454 13.4955 24.5727 13.4909 24.601C13.4867 24.6269 13.4643 24.6451 13.4392 24.6451Z" fill="#231F20"/>
<path d="M11.8608 20.1364C11.8419 20.1364 11.8237 20.1263 11.8143 20.1084C11.8006 20.0829 11.8104 20.0511 11.8359 20.0374L12.422 19.7259C12.4475 19.7122 12.4794 19.722 12.493 19.7476C12.5066 19.7731 12.4968 19.8049 12.4713 19.8186L11.8852 20.1301C11.8776 20.1343 11.8688 20.1364 11.8608 20.1364Z" fill="#231F20"/>
<path d="M17.6106 24.7694C17.6008 24.7694 17.591 24.7666 17.5822 24.761C17.5578 24.7453 17.5508 24.7128 17.5665 24.6886L18.1802 23.7351C18.1959 23.7106 18.2284 23.7036 18.2526 23.7193C18.2771 23.7351 18.284 23.7676 18.2683 23.7917L17.6546 24.7453C17.6445 24.761 17.6277 24.7694 17.6106 24.7694Z" fill="#231F20"/>
<path d="M17.6105 24.7697C17.5853 24.7697 17.563 24.7516 17.5588 24.7257C17.5542 24.697 17.5735 24.6701 17.6021 24.6655L18.3655 24.5407C18.3941 24.5362 18.4211 24.5554 18.4256 24.5841C18.4302 24.6127 18.4109 24.6397 18.3823 24.6442L17.6189 24.769C17.6161 24.7694 17.6133 24.7697 17.6105 24.7697Z" fill="#231F20"/>
<path d="M18.5834 21.9989C18.5834 21.9989 18.5803 21.9989 18.5785 21.9989C18.5495 21.9965 18.5285 21.971 18.531 21.9419L18.575 21.452C18.5775 21.423 18.6026 21.402 18.632 21.4045C18.661 21.4069 18.682 21.4325 18.6796 21.4615L18.6355 21.9514C18.6331 21.9787 18.6103 21.9993 18.5834 21.9993V21.9989Z" fill="#231F20"/>
<path d="M18.5585 22.268C18.5585 22.268 18.5554 22.268 18.5536 22.268C18.5246 22.2655 18.5036 22.24 18.5061 22.211L18.5302 21.9414C18.5326 21.9123 18.5578 21.891 18.5872 21.8938C18.6162 21.8962 18.6372 21.9218 18.6347 21.9508L18.6106 22.2204C18.6082 22.2477 18.5854 22.2683 18.5585 22.2683V22.268Z" fill="#231F20"/>
<path d="M20.79 20.5857C20.7876 20.5857 20.7855 20.5857 20.7831 20.5854C20.7691 20.5836 20.7568 20.5763 20.7488 20.5658L19.9277 20.1301C19.9022 20.1164 19.8924 20.0846 19.9061 20.0591C19.9197 20.0336 19.9515 20.0238 19.977 20.0374L20.8156 20.4825C20.8352 20.4927 20.846 20.514 20.8428 20.536L20.8421 20.5409C20.8387 20.5672 20.8159 20.5864 20.7904 20.5864L20.79 20.5857Z" fill="#231F20"/>
<path d="M18.6274 21.5084C18.6274 21.5084 18.6242 21.5084 18.6225 21.5084C18.5934 21.5059 18.5725 21.4804 18.5749 21.4514L18.7504 19.5019C18.7529 19.4729 18.7784 19.4516 18.8074 19.4543C18.8365 19.4568 18.8574 19.4823 18.855 19.5113L18.6795 21.4608C18.677 21.4881 18.6543 21.5087 18.6274 21.5087V21.5084Z" fill="#231F20"/>
<path d="M19.2414 24.4543C19.2207 24.4543 19.2008 24.4417 19.1927 24.4214C19.1819 24.3945 19.1952 24.364 19.2221 24.3532C19.8267 24.1112 20.2687 23.5867 20.4044 22.9496L20.7383 20.5267C20.7422 20.498 20.7691 20.4781 20.7974 20.4819C20.8261 20.4858 20.846 20.5123 20.8422 20.541L20.5079 22.966C20.5079 22.966 20.5075 22.9685 20.5072 22.9699C20.3645 23.6423 19.8987 24.1958 19.2609 24.4511C19.2546 24.4536 19.248 24.455 19.2414 24.455V24.4543Z" fill="#231F20"/>
<path d="M19.3661 19.825C19.3577 19.825 19.3493 19.8229 19.3416 19.819L18.8343 19.5494C18.8241 19.5568 18.8112 19.5606 18.7982 19.5596C18.7692 19.5571 18.7482 19.5316 18.7507 19.5026L18.7535 19.4704C18.7549 19.4529 18.7654 19.4372 18.7808 19.4291C18.7961 19.4208 18.815 19.4208 18.8304 19.4291L19.3909 19.7267C19.4165 19.7404 19.4263 19.7722 19.4126 19.7977C19.4032 19.8155 19.385 19.8257 19.3661 19.8257V19.825Z" fill="#231F20"/>
<path d="M18.2243 23.8159C18.2145 23.8159 18.2048 23.8131 18.196 23.8075C18.1715 23.7917 18.1645 23.7592 18.1803 23.7351L18.2006 23.704C18.3313 23.5018 18.4114 23.2679 18.4331 23.0277L18.5065 22.2108C18.509 22.1818 18.5345 22.1608 18.5635 22.1633C18.5925 22.1657 18.6135 22.1913 18.6111 22.2203L18.5376 23.0371C18.5146 23.2941 18.4285 23.5445 18.2887 23.761L18.2687 23.7921C18.2586 23.8078 18.2418 23.8162 18.2247 23.8162L18.2243 23.8159Z" fill="#231F20"/>
<path d="M19.2409 24.4545C19.2311 24.4545 19.2214 24.4517 19.2126 24.4461C19.1881 24.4304 19.1811 24.3979 19.1969 24.3737L19.2892 24.2304C19.4696 23.9496 19.5808 23.6258 19.6105 23.2939L19.8997 20.079C19.9022 20.05 19.9277 20.029 19.9567 20.0314C19.9857 20.0339 20.0067 20.0594 20.0043 20.0884L19.7151 23.3034C19.684 23.6517 19.5672 23.9919 19.3777 24.287L19.2853 24.4304C19.2752 24.4461 19.2584 24.4545 19.2413 24.4545H19.2409Z" fill="#231F20"/>
<path d="M18.3738 24.6448C18.364 24.6448 18.3542 24.642 18.3454 24.6364C18.3209 24.6207 18.314 24.5882 18.3297 24.5641L18.6962 23.9941C18.8766 23.714 18.9878 23.3902 19.0179 23.0583L19.3137 19.7675C19.3161 19.7385 19.3424 19.7172 19.3707 19.72C19.3997 19.7224 19.4207 19.7479 19.4182 19.777L19.1224 23.0678C19.0909 23.4168 18.9741 23.7567 18.7846 24.0511L18.4182 24.6211C18.408 24.6368 18.3912 24.6452 18.3741 24.6452L18.3738 24.6448Z" fill="#231F20"/>
<path d="M19.9523 20.1364C19.9439 20.1364 19.9356 20.1343 19.9279 20.1301L19.3418 19.8186C19.3163 19.8049 19.3065 19.7731 19.3201 19.7476C19.3338 19.722 19.3656 19.7122 19.3911 19.7259L19.9772 20.0374C20.0027 20.0511 20.0125 20.0829 19.9988 20.1084C19.9894 20.1263 19.9712 20.1364 19.9523 20.1364Z" fill="#231F20"/>
<path d="M18.3737 24.6451C18.3485 24.6451 18.3262 24.6269 18.322 24.601C18.3174 24.5723 18.3366 24.5454 18.3653 24.5409L18.8115 24.4678C18.9531 24.4444 19.0909 24.4059 19.2213 24.3534C19.2483 24.3426 19.2787 24.3555 19.2895 24.3825C19.3004 24.4094 19.2874 24.4398 19.2605 24.4507C19.1231 24.5063 18.9776 24.5468 18.8283 24.5713L18.3821 24.6444C18.3793 24.6447 18.3765 24.6451 18.3737 24.6451Z" fill="#231F20"/>
<path d="M18.6473 17.0682C17.2783 17.0682 16.3034 16.5731 15.7013 16.1241C14.9523 15.566 14.6117 14.9737 14.5977 14.9485C14.5834 14.9233 14.5921 14.8915 14.6173 14.8771C14.6425 14.8628 14.6743 14.8715 14.6886 14.8967C14.6921 14.9027 15.0348 15.4978 15.7677 16.0426C16.443 16.5448 17.5976 17.106 19.2656 16.9298C19.9509 16.857 20.4982 16.5465 20.8919 16.0066C21.3668 15.3559 21.6234 14.3834 21.6549 13.1158C21.6867 11.8381 21.4734 10.6565 21.3804 10.2075C21.3689 10.1523 21.3556 10.0925 21.3395 10.0247C21.3329 9.99634 21.3503 9.96836 21.3783 9.96137C21.407 9.95473 21.4346 9.97221 21.4416 10.0002C21.458 10.0691 21.4717 10.1296 21.4832 10.1859C21.5769 10.6383 21.792 11.8297 21.7598 13.1179C21.728 14.4068 21.4643 15.3996 20.9765 16.0678C20.5643 16.6329 19.9922 16.9577 19.2764 17.0333C19.0582 17.0563 18.8484 17.0672 18.6473 17.0672V17.0682Z" fill="#231F20"/>
<path d="M13.011 19.5696C13.011 19.5696 13.0096 19.5696 13.0089 19.5696C12.9799 19.5686 12.9575 19.5441 12.9585 19.5154L13.1523 14.2301C13.1533 14.201 13.1778 14.179 13.2065 14.1797C13.2355 14.1808 13.2579 14.2052 13.2568 14.2339L13.0631 19.5193C13.062 19.5476 13.0386 19.57 13.0106 19.57L13.011 19.5696Z" fill="#231F20"/>
<path d="M14.5868 25.8903C14.5582 25.8903 14.5347 25.8673 14.5344 25.8386L14.5225 25.0081C14.5172 24.9008 14.4351 24.8088 14.327 24.791L14.1934 24.7693C14.1648 24.7647 14.1455 24.7375 14.1501 24.7091C14.1546 24.6808 14.1819 24.6609 14.2102 24.6658L14.3438 24.6875C14.5001 24.713 14.6193 24.8466 14.627 25.0046L14.6389 25.8368C14.6393 25.8659 14.6162 25.8896 14.5872 25.89H14.5865L14.5868 25.8903Z" fill="#231F20"/>
<path d="M4.2602 22.5317C4.25005 22.5317 4.23991 22.5289 4.23082 22.5226C4.20704 22.5062 4.20075 22.4737 4.21719 22.4499L4.33643 22.2751C4.73366 21.6918 5.36133 21.2939 6.05859 21.1837L11.0163 20.4819C11.0446 20.4781 11.0716 20.498 11.0758 20.5267C11.08 20.5554 11.0597 20.5819 11.031 20.5861L6.07432 21.2879C5.40644 21.3935 4.80464 21.7754 4.4235 22.3349L4.30426 22.5097C4.29411 22.5247 4.27768 22.5328 4.2609 22.5328L4.2602 22.5317Z" fill="#231F20"/>
<path d="M14.6185 28.1109C14.5898 28.1109 14.5664 28.0878 14.566 28.0591L14.5342 25.8383C14.5338 25.8093 14.5569 25.7855 14.5859 25.7852H14.5866C14.6153 25.7852 14.6387 25.8082 14.6391 25.8369L14.6709 28.0577C14.6713 28.0867 14.6482 28.1105 14.6192 28.1109H14.6185Z" fill="#231F20"/>
<path d="M14.7177 35.0533H6.84298C6.81396 35.0533 6.79053 35.0299 6.79053 35.0008C6.79053 34.9718 6.81396 34.9484 6.84298 34.9484H14.6642L14.5656 28.059C14.5653 28.03 14.5883 28.0062 14.6174 28.0059C14.6457 28.0052 14.6702 28.0286 14.6705 28.0576L14.7698 35.0001C14.7698 35.0141 14.7646 35.0278 14.7548 35.0375C14.745 35.0473 14.7314 35.0533 14.7174 35.0533H14.7177Z" fill="#231F20"/>
<path d="M6.84313 35.054H-0.245888C-0.259875 35.054 -0.273163 35.0484 -0.282954 35.0386C-0.292745 35.0288 -0.29834 35.0155 -0.29834 35.0015L-0.295193 29.0899C-0.295193 29.0794 -0.292046 29.0692 -0.286101 29.0605L4.2167 22.4505C4.23314 22.4268 4.26565 22.4205 4.28943 22.4369C4.31321 22.4533 4.31951 22.4859 4.30307 22.5096L-0.190289 29.106L-0.193437 34.9487H6.84313C6.87215 34.9487 6.89558 34.9722 6.89558 35.0012C6.89558 35.0302 6.87215 35.0536 6.84313 35.0536V35.054Z" fill="#231F20"/>
<path d="M18.8029 19.5593C18.7994 19.5593 18.7959 19.5589 18.7924 19.5582C18.7893 19.5575 18.7858 19.5565 18.7827 19.5551C18.7795 19.5537 18.7764 19.5523 18.7736 19.5502C18.7708 19.5485 18.768 19.5464 18.7655 19.5439C18.7557 19.5341 18.7505 19.5205 18.7505 19.5065C18.7505 19.5033 18.7505 19.4999 18.7512 19.4964C18.7519 19.4932 18.7529 19.4897 18.7543 19.4866C18.7557 19.4834 18.7571 19.4803 18.7592 19.4775C18.761 19.4747 18.7631 19.4719 18.7655 19.4698C18.768 19.4673 18.7708 19.4649 18.7736 19.4631C18.7764 19.461 18.7795 19.4596 18.7827 19.4582C18.7858 19.4568 18.7893 19.4558 18.7924 19.4551C18.8096 19.4516 18.8278 19.4575 18.84 19.4698C18.8494 19.4792 18.8554 19.4929 18.8554 19.5065C18.8554 19.5201 18.8494 19.5341 18.84 19.5439C18.8376 19.5464 18.8348 19.5485 18.832 19.5502C18.8292 19.5523 18.826 19.5537 18.8229 19.5551C18.8197 19.5565 18.8162 19.5575 18.8131 19.5582C18.8096 19.5589 18.8061 19.5593 18.8029 19.5593Z" fill="#231F20"/>
<path d="M18.8025 19.5588C18.7734 19.5588 18.75 19.5354 18.75 19.5064V17.0212C18.75 16.9922 18.7734 16.9688 18.8025 16.9688C18.8315 16.9688 18.8549 16.9922 18.8549 17.0212V19.5064C18.8549 19.5354 18.8315 19.5588 18.8025 19.5588Z" fill="#231F20"/>
<path d="M17.1975 27.8982H17.1968C17.1678 27.8979 17.1447 27.8741 17.145 27.8451L17.1856 25.0064C17.1933 24.8462 17.3125 24.713 17.4688 24.6875L17.6024 24.6658C17.6307 24.6609 17.658 24.6805 17.6625 24.7092C17.6671 24.7378 17.6479 24.7647 17.6192 24.7693L17.4856 24.791C17.3779 24.8085 17.2954 24.9008 17.2901 25.0099L17.2496 27.8468C17.2492 27.8755 17.2258 27.8986 17.1971 27.8986L17.1975 27.8982Z" fill="#231F20"/>
<path d="M17.1545 30.8959H17.1538C17.1248 30.8956 17.1017 30.8718 17.1021 30.8428L17.1451 27.8457C17.1454 27.817 17.1688 27.7939 17.1975 27.7939H17.1982C17.2272 27.7943 17.2503 27.8181 17.25 27.8471L17.207 30.8442C17.2066 30.8729 17.1832 30.8959 17.1545 30.8959Z" fill="#231F20"/>
<path d="M33.9184 35.0532H25.0149C24.9858 35.0532 24.9624 35.0298 24.9624 35.0008C24.9624 34.9718 24.9858 34.9483 25.0149 34.9483H33.8659V30.9959L27.5542 22.5135C27.5367 22.49 27.5416 22.4575 27.5651 22.44C27.5881 22.4229 27.621 22.4274 27.6385 22.4509L33.9603 30.9473C33.967 30.9564 33.9708 30.9673 33.9708 30.9788V35.0011C33.9708 35.0302 33.9474 35.0536 33.9184 35.0536V35.0532Z" fill="#231F20"/>
<path d="M27.5966 22.535C27.5805 22.535 27.5648 22.5276 27.5546 22.514L27.3658 22.2605C26.9791 21.7405 26.4136 21.3985 25.7737 21.2971L20.7828 20.5859C20.7541 20.5817 20.7342 20.5551 20.7384 20.5264C20.7425 20.4977 20.7688 20.4778 20.7978 20.482L25.7898 21.1936C26.4577 21.2995 27.0472 21.6559 27.4504 22.1979L27.6392 22.4514C27.6567 22.4748 27.6518 22.5073 27.6284 22.5248C27.619 22.5318 27.6081 22.5353 27.5973 22.5353L27.5966 22.535Z" fill="#231F20"/>
<path d="M6.84316 35.053C6.81518 35.053 6.79175 35.0307 6.7907 35.0023L6.50956 27.1954C6.47949 26.3618 6.21723 25.5554 5.75076 24.8641L4.21603 22.508C4.20029 22.4839 4.20693 22.4513 4.23141 22.4353C4.25554 22.4195 4.28806 22.4262 4.30415 22.4507L5.83818 24.8061C6.31514 25.5131 6.58369 26.3384 6.61447 27.1916L6.89561 34.9985C6.89666 35.0275 6.87393 35.0516 6.8449 35.0527C6.8442 35.0527 6.84351 35.0527 6.84316 35.0527V35.053Z" fill="#231F20"/>
<path d="M25.0154 35.0537C25.0154 35.0537 25.014 35.0537 25.0136 35.0537C24.9846 35.0527 24.9619 35.0282 24.9629 34.9995L25.2441 27.1926C25.2748 26.3394 25.5434 25.5141 26.0207 24.8064L27.5526 22.4545C27.5684 22.4303 27.6009 22.4233 27.6254 22.4391C27.6495 22.4548 27.6565 22.4873 27.6408 22.5118L26.1085 24.8644C25.6417 25.5568 25.379 26.3628 25.3493 27.1964L25.0682 35.0034C25.0671 35.0317 25.0441 35.0541 25.0157 35.0541L25.0154 35.0537Z" fill="#231F20"/>
<path d="M15.9952 23.0827C15.8043 23.0827 15.6197 23.0718 15.4466 23.0508C15.4179 23.0473 15.3973 23.0211 15.4008 22.9924C15.4043 22.9638 15.4308 22.9435 15.4592 22.9466C15.6281 22.9673 15.8085 22.9778 15.9952 22.9778C16.3292 22.9778 16.639 22.9442 16.9156 22.8774C16.9436 22.8708 16.9722 22.8879 16.9789 22.9162C16.9855 22.9442 16.9684 22.9729 16.9401 22.9795C16.6554 23.048 16.3376 23.0827 15.9952 23.0827Z" fill="#231F20"/>
<path d="M15.2365 23.0185C15.2333 23.0185 15.2302 23.0185 15.227 23.0178C14.6595 22.9153 14.1843 22.6908 13.8143 22.3499C13.793 22.3303 13.7916 22.2971 13.8112 22.2758C13.8308 22.2544 13.864 22.253 13.8853 22.2726C14.2402 22.5999 14.698 22.8157 15.2456 22.9146C15.2739 22.9199 15.2931 22.9471 15.2879 22.9755C15.2833 23.0006 15.2613 23.0185 15.2365 23.0185Z" fill="#231F20"/>
<path d="M13.6974 22.209C13.683 22.209 13.6687 22.203 13.6586 22.1918C13.426 21.9348 13.2442 21.6246 13.1183 21.2704C13.1085 21.2431 13.1229 21.2131 13.1501 21.2033C13.1774 21.1935 13.2075 21.2078 13.2173 21.2351C13.3386 21.5764 13.5131 21.8747 13.7365 22.1212C13.7561 22.1425 13.7544 22.1757 13.7327 22.1953C13.7226 22.2044 13.71 22.209 13.6974 22.209Z" fill="#231F20"/>
<path d="M18.4542 21.8842C18.4455 21.8842 18.4364 21.8821 18.4283 21.8772C18.4032 21.8629 18.3944 21.8307 18.4087 21.8059C18.4734 21.6922 18.5304 21.5688 18.578 21.4387C18.5881 21.4114 18.6182 21.3975 18.6451 21.4076C18.6724 21.4177 18.6864 21.4478 18.6763 21.4747C18.6266 21.6101 18.5672 21.7387 18.4997 21.8576C18.4899 21.8748 18.4724 21.8842 18.4542 21.8842Z" fill="#231F20"/>
<path d="M17.1369 22.9225C17.1146 22.9225 17.0939 22.9082 17.0869 22.8858C17.0782 22.8582 17.0936 22.8288 17.1212 22.82C17.6216 22.6616 18.016 22.3812 18.2937 21.9871C18.3104 21.9633 18.343 21.9577 18.3667 21.9745C18.3905 21.9913 18.3961 22.0238 18.3793 22.0476C18.0884 22.4609 17.6758 22.7546 17.153 22.9204C17.1478 22.9221 17.1425 22.9228 17.1373 22.9228L17.1369 22.9225Z" fill="#231F20"/>
<path d="M17.4839 24.1101C17.4608 24.1101 17.4399 24.095 17.4336 24.0719C17.4259 24.044 17.442 24.0149 17.4699 24.0073C17.7318 23.9338 17.9773 23.8363 18.2004 23.7181C18.2259 23.7044 18.2578 23.7142 18.2714 23.7398C18.285 23.7653 18.2752 23.7971 18.2497 23.8107C18.0203 23.9324 17.7675 24.0324 17.4986 24.1083C17.4937 24.1097 17.4892 24.1104 17.4843 24.1104L17.4839 24.1101Z" fill="#231F20"/>
<path d="M14.9014 24.2091C14.8986 24.2091 14.8954 24.2091 14.8926 24.2084C14.3776 24.121 13.9167 23.9654 13.5229 23.7458C13.4978 23.7318 13.4887 23.6996 13.5027 23.6745C13.5166 23.6493 13.5485 23.6398 13.574 23.6542C13.9572 23.8678 14.4069 24.0196 14.9101 24.1049C14.9388 24.1098 14.958 24.1367 14.9531 24.1654C14.9489 24.1909 14.9265 24.2091 14.9014 24.2091Z" fill="#231F20"/>
<path d="M15.9953 24.296C15.6855 24.296 15.388 24.2775 15.111 24.2415C15.0823 24.2376 15.0621 24.2114 15.0659 24.1827C15.0697 24.154 15.0963 24.1338 15.1246 24.1376C15.3967 24.1733 15.6897 24.1915 15.995 24.1915C16.4538 24.1915 16.8797 24.1471 17.2612 24.06C17.2898 24.0533 17.3175 24.0712 17.3241 24.0995C17.3308 24.1278 17.3129 24.1558 17.2846 24.1624C16.8954 24.2516 16.4618 24.2967 15.995 24.2967L15.9953 24.296Z" fill="#231F20"/>
<path d="M13.85 22.3638C13.8374 22.3638 13.8245 22.3593 13.8147 22.3502C13.7615 22.3016 13.7091 22.2484 13.6584 22.1921C13.6391 22.1704 13.6409 22.1376 13.6622 22.118C13.6839 22.0987 13.7168 22.1001 13.7364 22.1218C13.785 22.1757 13.835 22.2264 13.8857 22.2729C13.907 22.2925 13.9084 22.3257 13.8888 22.347C13.8783 22.3582 13.8643 22.3641 13.85 22.3641V22.3638Z" fill="#231F20"/>
<path d="M15.4528 23.0512C15.4507 23.0512 15.4486 23.0512 15.4465 23.0509C15.3717 23.0418 15.2979 23.0306 15.2273 23.018C15.1986 23.0128 15.1797 22.9855 15.185 22.9572C15.1902 22.9285 15.2175 22.91 15.2458 22.9148C15.3147 22.9271 15.3864 22.9379 15.4595 22.947C15.4881 22.9505 15.5088 22.9767 15.5053 23.0054C15.5021 23.032 15.4794 23.0516 15.4532 23.0516L15.4528 23.0512Z" fill="#231F20"/>
<path d="M15.1181 24.2417C15.116 24.2417 15.1136 24.2417 15.1115 24.2414C15.037 24.2319 14.9632 24.2207 14.8926 24.2085C14.8639 24.2036 14.845 24.1763 14.8499 24.148C14.8548 24.1193 14.8821 24.1001 14.9104 24.1054C14.9796 24.1172 15.0517 24.1281 15.1244 24.1375C15.1531 24.1414 15.1733 24.1676 15.1698 24.1963C15.1664 24.2228 15.144 24.2421 15.1177 24.2421L15.1181 24.2417Z" fill="#231F20"/>
<path d="M16.9279 22.9813C16.9042 22.9813 16.8828 22.9653 16.8769 22.9411C16.8703 22.9128 16.8877 22.8848 16.9157 22.8778C16.9846 22.8614 17.0538 22.8422 17.121 22.8208C17.1489 22.8121 17.178 22.8271 17.1871 22.8548C17.1958 22.8824 17.1808 22.9118 17.1531 22.9209C17.0836 22.9432 17.0119 22.9632 16.9402 22.9799C16.936 22.981 16.9321 22.9813 16.9279 22.9813Z" fill="#231F20"/>
<path d="M17.273 24.1631C17.2489 24.1631 17.2276 24.1467 17.222 24.1222C17.2157 24.0939 17.2332 24.0659 17.2615 24.0596C17.3318 24.0435 17.4 24.0264 17.4699 24.0068C17.4979 23.9991 17.5269 24.0152 17.5346 24.0432C17.5423 24.0711 17.5262 24.1002 17.4982 24.1079C17.4265 24.1278 17.357 24.1456 17.2849 24.1621C17.2811 24.1631 17.2772 24.1635 17.2734 24.1635L17.273 24.1631Z" fill="#231F20"/>
<path d="M18.3361 22.0702C18.3256 22.0702 18.3151 22.0671 18.306 22.0608C18.2823 22.044 18.2767 22.0115 18.2931 21.9877C18.3354 21.9272 18.3742 21.866 18.4081 21.8059C18.4225 21.7807 18.4543 21.772 18.4795 21.7859C18.5047 21.8003 18.5137 21.8321 18.4994 21.8573C18.4637 21.9202 18.4232 21.9846 18.3788 22.0479C18.3686 22.0625 18.3522 22.0702 18.3358 22.0702H18.3361Z" fill="#231F20"/>
<path d="M17.1546 30.8959C17.1396 30.8959 17.1245 30.8896 17.1144 30.8771C17.085 30.8421 17.0563 30.8064 17.0277 30.7708C16.9374 30.6592 16.8441 30.5438 16.7378 30.4473C16.6416 30.3602 16.5308 30.2844 16.4231 30.2109C16.2633 30.1018 16.0982 29.9892 15.9723 29.8343C15.6122 29.3913 15.6838 28.644 16.1297 28.2027C16.4916 27.8443 16.857 27.7943 17.198 27.7939C17.227 27.7939 17.2504 27.8174 17.2504 27.8464C17.2504 27.8754 17.227 27.8988 17.198 27.8988C16.8301 27.8992 16.5199 27.9639 16.2035 28.2772C15.7947 28.6821 15.7262 29.3647 16.0538 29.7679C16.1702 29.9109 16.3217 30.0144 16.4822 30.1242C16.5927 30.1997 16.7067 30.2777 16.8081 30.3697C16.9203 30.4714 17.0161 30.59 17.1091 30.7047C17.1375 30.74 17.1661 30.775 17.1952 30.8096C17.2137 30.8319 17.2105 30.8648 17.1885 30.8834C17.1787 30.8914 17.1668 30.8956 17.1549 30.8956L17.1546 30.8959Z" fill="#231F20"/>
<path d="M14.6187 28.1103C14.6029 28.1103 14.5872 28.1033 14.5771 28.0897C14.5596 28.0666 14.5638 28.0337 14.5869 28.0163C14.6599 27.9603 14.7197 27.9054 14.7697 27.8474C14.9586 27.6292 15.0512 27.3333 15.1331 27.0721C15.2338 26.7504 15.3362 26.2958 15.0638 26.0616C14.9512 25.9647 14.7974 25.9294 14.6362 25.899C14.6257 25.8969 14.6152 25.8951 14.605 25.8934L14.5778 25.8885C14.5491 25.8832 14.5306 25.8559 14.5355 25.8273C14.5407 25.7986 14.5683 25.7801 14.5966 25.785L14.6225 25.7895C14.6334 25.7913 14.6446 25.7934 14.6554 25.7955C14.8243 25.8273 15.0002 25.8678 15.132 25.9818C15.4513 26.2567 15.3425 26.7536 15.2331 27.1032C15.1481 27.3742 15.0519 27.6809 14.8491 27.9156C14.7942 27.9788 14.7295 28.039 14.6505 28.0991C14.6411 28.1065 14.6299 28.11 14.6187 28.11V28.1103Z" fill="#231F20"/>
<path d="M13.2863 14.2939C13.2558 14.2939 13.2247 14.2904 13.1936 14.2837C13.1653 14.2774 13.1474 14.2495 13.1537 14.2211C13.16 14.1928 13.1877 14.175 13.2163 14.1813C13.2398 14.1865 13.2632 14.189 13.2863 14.189C13.4646 14.189 13.6097 14.0438 13.6097 13.8655C13.6097 13.6872 13.4646 13.5421 13.2863 13.5421C13.1079 13.5421 12.9628 13.6872 12.9628 13.8655C12.9628 13.9169 12.9747 13.9662 12.9985 14.0127C13.0118 14.0386 13.0016 14.0701 12.9758 14.0834C12.9499 14.0966 12.9184 14.0865 12.9051 14.0606C12.8736 13.9994 12.8579 13.934 12.8579 13.8659C12.8579 13.6295 13.0502 13.4375 13.2863 13.4375C13.5223 13.4375 13.7146 13.6298 13.7146 13.8659C13.7146 14.1019 13.5223 14.2942 13.2863 14.2942V14.2939Z" fill="#231F20"/>
<path d="M13.2048 14.2847C13.2009 14.2847 13.1974 14.2844 13.1936 14.2833C13.0684 14.2557 12.9632 14.1742 12.9048 14.0599C12.8915 14.034 12.9016 14.0025 12.9275 13.9892C12.9534 13.976 12.9848 13.9861 12.9981 14.012C13.0425 14.0983 13.1219 14.1599 13.2163 14.1809C13.2447 14.1872 13.2625 14.2151 13.2562 14.2435C13.2509 14.2679 13.2293 14.2847 13.2051 14.2847H13.2048Z" fill="#231F20"/>
<path d="M9.62444 27.3908C9.58598 27.3908 9.54752 27.3894 9.5087 27.387C9.06461 27.3566 8.65933 27.1548 8.367 26.8191C8.07467 26.4834 7.9306 26.054 7.96103 25.6103C7.99145 25.1662 8.19321 24.7609 8.5289 24.4686C8.8646 24.1762 9.29365 24.0322 9.73774 24.0626C10.6542 24.1259 11.3487 24.9228 11.2854 25.8393C11.2249 26.717 10.4913 27.3912 9.62444 27.3912V27.3908ZM9.51604 27.2821C10.3742 27.3412 11.1218 26.6908 11.1809 25.8316C11.24 24.9728 10.5896 24.2259 9.7304 24.1668C9.31428 24.1381 8.91215 24.2731 8.59744 24.5472C8.28308 24.821 8.0939 25.2011 8.06523 25.6173C8.03656 26.0334 8.17153 26.4355 8.44568 26.7502C8.71948 27.0646 9.09958 27.2537 9.5157 27.2824L9.51604 27.2821Z" fill="#231F20"/>
</g>
</g>
<rect x="1.96387" y="1.44531" width="28.0723" height="28.0723" rx="14.0361" stroke="#131515" stroke-width="2"/>
<defs>
<clipPath id="clip0_2147_25324">
<rect x="0.963867" y="0.445312" width="30.0723" height="30.0723" rx="15.0361" fill="white"/>
</clipPath>
<clipPath id="clip1_2147_25324">
<rect width="30.0723" height="30.0723" fill="white" transform="translate(0.963867 0.445312)"/>
</clipPath>
</defs>
</svg>
