<svg width="37" height="37" viewBox="0 0 37 37" fill="none" xmlns="http://www.w3.org/2000/svg">
<circle cx="18.5" cy="18.5" r="18.5" fill="black" fill-opacity="0.35"/>
<path d="M18.1456 11.6145C16.7954 11.5558 15.2837 12.5196 14.6966 13.0089C14.6966 12.5686 13.1555 10 12.3482 10C11.541 10 10 16.825 10 19.9807C10 23.1363 12.862 25.925 18.1456 25.9984C23.4293 26.0718 25.9243 23.5766 25.9977 19.9807C26.0711 16.3847 24.3832 10 23.576 10C22.9302 10 21.6436 12.0059 21.081 13.0089C20.6651 12.5686 19.4959 11.6732 18.1456 11.6145Z" stroke="#014F59"/>
<path d="M17.2363 23H15C15.0624 22.5784 15.0832 22.1473 15.0832 21.582V16.3988C15.0832 15.8814 15.0624 15.4503 15 15C15.4889 15.0192 15.8633 15.0287 16.529 15.0287H18.8068C20.8663 15.0287 22 15.9389 22 17.606C22 19.3114 20.8143 20.3269 18.7964 20.3269H17.153V21.5533C17.153 22.1186 17.1842 22.588 17.2363 23ZM17.153 18.6982H18.7028C19.4309 18.6982 19.8574 18.3246 19.8574 17.6635C19.8574 17.0024 19.4517 16.6575 18.7028 16.6575H17.153V18.6982Z" fill="#014F59"/>
</svg>
