<svg width="17" height="13" viewBox="0 0 17 13" fill="none" xmlns="http://www.w3.org/2000/svg">
<path d="M14.3006 0H2.41371C1.09006 0 0 1.07905 0 2.38933V10.6107C0 11.9209 1.09006 13 2.41371 13H14.3006C15.6242 13 16.7143 11.9209 16.7143 10.6107V2.38933C16.7143 1.07905 15.6242 0 14.3006 0ZM14.3006 1.13043C14.3006 1.13043 14.4823 1.13043 14.5861 1.15613L9.57697 6.78261C9.26553 7.1166 8.82431 7.32213 8.35714 7.32213C7.88997 7.32213 7.44876 7.1166 7.13731 6.78261L2.12822 1.18182C2.12822 1.18182 2.30989 1.15613 2.41371 1.15613H14.3006V1.13043ZM15.5723 10.585C15.5723 11.2787 15.0013 11.8439 14.3006 11.8439H2.41371C1.71295 11.8439 1.14197 11.2787 1.14197 10.585V2.38933C1.14197 2.20949 1.16792 2.05534 1.24579 1.92688L6.28083 7.57905C6.79991 8.16996 7.55257 8.50395 8.35714 8.50395C9.16171 8.50395 9.91437 8.16996 10.4335 7.57905L15.4685 1.92688C15.5204 2.08103 15.5723 2.23518 15.5723 2.38933V10.6107V10.585Z" fill="#415B5E"/>
</svg>
